# xmcd CD database file
#
# Track frame offsets:
#	150
#	23085
#	46710
#	74380
#	96205
#	101050
#	113352
#	130127
#	159887
#	180830
#	192637
#	219880
#	237115
#	256737
#	284445
#
# Disc length: 4065 seconds
#
# Revision: 1
# Processed by: cddbd v1.5.1PL0 Copyright (c) Steve Scherf et al.
# Submitted via: CDex 1.51
#
DISCID=bc0fdf0f
DTITLE=KING CRIMSON - Cirkus (1)
DYEAR=1900
DGENRE=
TTITLE0=Dinosaur 1996
TTITLE1=Thela Hun Ginjeet 1984
TTITLE2=Red 1996
TTITLE3=B'BOOM 1996
TTITLE4=Thrak 1996
TTITLE5=1 ii 2 1997
TTITLE6=Neurotica 1996
TTITLE7=Indiscipline 1995
TTITLE8=VROOOM VROOOM 1996
TTITLE9=Coda - Marine 1996
TTITLE10=Deception of The Thrush 1998
TTITLE11=Heavy Construkction 1998
TTITLE12=Three of A Perfect Pair 1984
TTITLE13=Sleepless 1984
TTITLE14=Elephant Talk 1995
EXTD=
EXTT0=
EXTT1=
EXTT2=
EXTT3=
EXTT4=
EXTT5=
EXTT6=
EXTT7=
EXTT8=
EXTT9=
EXTT10=
EXTT11=
EXTT12=
EXTT13=
EXTT14=
PLAYORDER=
